<?xml version="1.0" encoding="UTF-8" standalone="no"?>
<svg xmlns="http://www.w3.org/2000/svg" version="1.2" baseProfile="tiny" viewBox="0.00 0.00 380.00 100.00" width="380.00" height="100.00">
<path fill="#1b2944" d="
  M 241.66 57.65
  C 243.23 58.34 244.93 59.35 246.63 59.98
  Q 258.60 64.36 271.51 63.96
  C 274.66 63.87 282.62 63.36 284.09 59.95
  C 285.99 55.58 278.35 54.02 275.34 53.35
  C 261.71 50.34 253.18 49.50 245.27 43.28
  C 238.88 38.26 239.62 28.26 245.30 23.06
  C 246.96 21.54 250.73 19.59 253.50 18.81
  C 266.58 15.09 281.69 16.78 294.60 20.84
  A 0.82 0.81 8.7 0 1 295.18 21.62
  L 295.18 33.17
  A 0.45 0.45 0.0 0 1 294.56 33.59
  Q 277.88 26.55 261.00 28.89
  C 259.60 29.09 255.93 30.25 256.01 32.21
  C 256.12 35.21 261.79 36.58 264.57 37.18
  C 277.07 39.88 287.74 41.42 295.62 48.18
  C 300.70 52.53 300.95 60.92 297.29 66.36
  C 293.22 72.40 283.88 74.64 276.46 75.17
  Q 256.97 76.57 241.61 70.85
  A 0.79 0.79 0.0 0 1 241.09 70.11
  L 241.09 58.02
  A 0.41 0.41 0.0 0 1 241.66 57.65
  Z"
/>
<path fill="#1b2944" d="
  M 41.49 59.77
  Q 41.53 59.77 41.56 59.77
  A 0.16 0.05 -6.4 0 0 41.69 59.71
  L 61.56 18.71
  A 0.95 0.95 0.0 0 1 62.41 18.18
  L 78.20 18.18
  A 0.27 0.26 13.5 0 1 78.44 18.56
  L 50.44 73.64
  A 0.62 0.60 -77.7 0 1 49.95 73.97
  Q 49.55 74.00 41.48 74.00
  Q 33.41 74.00 33.02 73.96
  A 0.62 0.60 77.8 0 1 32.52 73.63
  L 4.58 18.52
  A 0.27 0.26 -13.4 0 1 4.82 18.14
  L 20.61 18.16
  A 0.95 0.95 0.0 0 1 21.46 18.69
  L 41.29 59.71
  A 0.16 0.05 6.5 0 0 41.42 59.77
  Q 41.44 59.77 41.49 59.77
  Z"
/>
<path fill="#1b2944" d="
  M 120.49 63.50
  C 127.04 63.50 135.98 62.28 137.90 54.70
  C 138.33 53.00 138.61 50.04 138.60 48.09
  Q 138.58 44.85 138.59 18.59
  A 0.43 0.43 0.0 0 1 139.02 18.16
  L 153.23 18.16
  A 0.40 0.40 0.0 0 1 153.63 18.56
  Q 153.64 48.95 153.65 49.72
  Q 153.82 57.45 152.70 60.45
  C 148.08 72.73 131.86 75.46 120.49 75.46
  C 109.12 75.47 92.90 72.74 88.28 60.45
  Q 87.15 57.46 87.32 49.73
  Q 87.33 48.96 87.33 18.57
  A 0.40 0.40 0.0 0 1 87.73 18.17
  L 101.94 18.16
  A 0.43 0.43 0.0 0 1 102.37 18.59
  Q 102.39 44.85 102.37 48.09
  C 102.36 50.04 102.64 53.00 103.07 54.70
  C 104.99 62.29 113.93 63.50 120.49 63.50
  Z"
/>
<path fill="#1b2944" d="
  M 198.64 35.42
  Q 198.72 35.42 198.75 35.41
  A 0.38 0.28 10.1 0 0 198.94 35.32
  L 214.32 18.62
  A 1.41 1.40 -68.7 0 1 215.36 18.16
  L 231.94 18.16
  A 0.39 0.39 0.0 0 1 232.23 18.81
  L 207.90 45.09
  A 0.38 0.38 0.0 0 0 207.90 45.61
  L 233.77 73.58
  A 0.25 0.25 0.0 0 1 233.59 74.00
  L 216.66 74.00
  A 1.31 1.31 0.0 0 1 215.69 73.57
  Q 203.91 60.88 198.87 55.43
  Q 198.80 55.35 198.64 55.35
  Q 198.49 55.35 198.41 55.43
  Q 193.38 60.88 181.60 73.57
  A 1.31 1.31 0.0 0 1 180.63 74.00
  L 163.70 74.00
  A 0.25 0.25 0.0 0 1 163.52 73.58
  L 189.39 45.61
  A 0.38 0.38 0.0 0 0 189.39 45.09
  L 165.06 18.81
  A 0.39 0.39 0.0 0 1 165.35 18.16
  L 181.93 18.16
  A 1.41 1.40 68.7 0 1 182.97 18.62
  L 198.35 35.32
  A 0.38 0.28 -10.1 0 0 198.53 35.41
  Q 198.57 35.42 198.64 35.42
  Z"
/>
<path fill="#1b2944" d="
  M 341.25 40.40
  Q 341.28 40.40 341.31 40.40
  A 0.14 0.02 -0.4 0 0 341.44 40.38
  Q 347.26 33.06 358.51 18.68
  A 1.37 1.36 -70.8 0 1 359.58 18.16
  L 374.95 18.16
  A 0.42 0.42 0.0 0 1 375.28 18.85
  L 349.10 50.80
  A 1.41 1.37 65.3 0 0 348.79 51.68
  L 348.79 73.60
  A 0.37 0.35 -2.0 0 1 348.45 73.95
  Q 347.64 74.00 341.25 74.00
  Q 334.86 74.00 334.05 73.95
  A 0.37 0.35 2.0 0 1 333.71 73.60
  L 333.71 51.68
  A 1.41 1.37 -65.3 0 0 333.40 50.80
  L 307.22 18.85
  A 0.42 0.42 0.0 0 1 307.55 18.16
  L 322.92 18.16
  A 1.37 1.36 70.8 0 1 323.99 18.68
  Q 335.24 33.06 341.06 40.38
  A 0.14 0.02 0.4 0 0 341.19 40.40
  Q 341.22 40.40 341.25 40.40
  Z"
/>
</svg>
