<?xml version="1.0" encoding="UTF-8" standalone="no"?>
<!DOCTYPE svg PUBLIC "-//W3C//DTD SVG 1.1//EN" "http://www.w3.org/Graphics/SVG/1.1/DTD/svg11.dtd">
<svg xmlns="http://www.w3.org/2000/svg" version="1.1" viewBox="0.00 0.00 420.00 150.00">
<ellipse fill="#30717b" cx="0.00" cy="0.00" transform="translate(292.73,18.99) rotate(-0.1)" rx="14.63" ry="13.95"/>
<rect fill="#30717b" x="233.70" y="12.62" width="23.72" height="125.42" rx="0.48"/>
<path fill="#30717b" d="
  M 68.07 54.67
  L 88.65 19.02
  A 0.34 0.34 0.0 0 1 88.95 18.85
  L 121.17 18.85
  A 0.34 0.34 0.0 0 1 121.46 19.37
  L 83.93 78.93
  A 0.34 0.34 0.0 0 0 83.93 79.30
  L 122.63 137.33
  A 0.34 0.34 0.0 0 1 122.34 137.86
  L 89.45 137.86
  A 0.34 0.34 0.0 0 1 89.17 137.71
  L 65.37 102.03
  A 0.34 0.34 0.0 0 0 64.80 102.04
  L 44.22 137.69
  A 0.34 0.34 0.0 0 1 43.92 137.86
  L 11.70 137.86
  A 0.34 0.34 0.0 0 1 11.41 137.34
  L 48.94 77.78
  A 0.34 0.34 0.0 0 0 48.94 77.41
  L 10.24 19.38
  A 0.34 0.34 0.0 0 1 10.53 18.85
  L 43.42 18.85
  A 0.34 0.34 0.0 0 1 43.70 19.00
  L 67.50 54.68
  A 0.34 0.34 0.0 0 0 68.07 54.67
  Z"
/>
<path fill="#30717b" d="
  M 214.33 109.13
  C 209.48 124.61 196.38 135.89 180.38 138.62
  C 145.48 144.57 120.42 119.61 123.98 84.50
  C 126.87 55.97 149.50 39.59 177.49 43.05
  Q 198.52 45.66 209.41 61.94
  C 216.15 72.02 218.23 85.83 216.35 97.58
  A 0.69 0.69 0.0 0 1 215.67 98.16
  L 148.20 98.16
  A 0.42 0.42 0.0 0 0 147.78 98.62
  C 149.11 113.04 160.28 121.84 174.79 119.32
  C 181.31 118.19 185.58 114.49 188.75 108.99
  A 0.99 0.99 0.0 0 1 189.60 108.51
  L 213.88 108.51
  A 0.47 0.47 0.0 0 1 214.33 109.13
  Z
  M 192.36 81.59
  C 191.63 69.07 181.53 61.94 169.55 62.12
  C 157.85 62.31 149.66 70.24 148.01 81.64
  A 0.50 0.50 0.0 0 0 148.51 82.21
  L 191.78 82.21
  A 0.58 0.58 0.0 0 0 192.36 81.59
  Z"
/>
<path fill="#30717b" d="
  M 352.07 55.21
  C 353.31 53.93 355.44 51.51 357.23 50.18
  Q 365.16 44.32 373.93 43.15
  C 382.60 42.00 392.83 43.46 400.45 48.31
  C 412.02 55.67 416.98 68.07 417.09 81.48
  Q 417.30 105.98 417.16 137.74
  A 0.26 0.25 -90.0 0 1 416.91 138.00
  L 393.88 138.00
  A 0.45 0.44 0.6 0 1 393.43 137.55
  Q 393.70 105.25 393.39 84.85
  C 393.23 74.34 387.89 64.75 376.63 63.29
  C 360.90 61.24 351.51 70.42 351.46 86.00
  Q 351.39 109.10 351.44 137.72
  A 0.28 0.28 0.0 0 1 351.16 138.00
  L 328.05 138.00
  A 0.36 0.36 0.0 0 1 327.69 137.64
  L 327.69 44.41
  A 0.32 0.32 0.0 0 1 328.01 44.09
  L 350.88 44.09
  A 0.54 0.54 0.0 0 1 351.42 44.63
  L 351.42 54.94
  A 0.38 0.38 0.0 0 0 352.07 55.21
  Z"
/>
<rect fill="#30717b" x="280.69" y="44.09" width="23.74" height="93.90" rx="0.35"/>
</svg>
