<?xml version="1.0" encoding="UTF-8" standalone="no"?>
<svg xmlns="http://www.w3.org/2000/svg" version="1.2" baseProfile="tiny" viewBox="0.00 0.00 480.00 250.00" width="480.00" height="250.00">
<path fill="#142844" d="
  M 70.77 140.24
  A 0.33 0.33 0.0 0 0 71.37 140.18
  C 82.11 108.01 93.66 76.69 108.12 48.16
  Q 116.21 32.20 127.37 18.94
  Q 139.27 4.79 157.68 5.94
  C 166.36 6.48 176.63 11.75 176.80 21.71
  C 176.94 29.98 171.15 32.94 163.80 39.30
  C 152.22 49.32 142.42 63.51 134.43 77.19
  Q 120.18 101.57 108.82 129.06
  Q 104.24 140.14 93.45 167.45
  Q 85.98 186.34 64.77 185.43
  C 52.85 184.91 45.88 177.99 41.80 167.02
  Q 38.53 158.22 36.31 148.22
  Q 30.87 123.69 29.74 90.01
  Q 28.85 63.27 32.52 37.78
  C 34.90 21.23 48.43 11.68 64.88 14.76
  C 74.61 16.58 81.06 25.33 78.34 35.07
  Q 77.56 37.89 75.60 43.33
  C 71.22 55.48 69.33 68.33 68.31 84.50
  Q 66.61 111.17 70.11 138.32
  Q 70.24 139.33 70.77 140.24
  Z"
/>
<path fill="#142844" d="
  M 331.35 91.20
  C 330.60 93.90 332.94 96.69 335.01 98.01
  C 346.15 105.14 355.88 111.72 353.28 127.01
  Q 351.96 134.81 346.48 141.23
  Q 334.62 155.16 315.25 155.20
  Q 306.83 155.22 299.78 151.28
  C 293.05 147.51 291.23 138.38 296.40 132.59
  C 299.42 129.21 304.00 128.72 307.87 131.09
  C 312.71 134.06 317.46 135.19 322.80 133.16
  C 326.85 131.63 331.30 127.32 329.40 122.66
  Q 328.33 120.04 324.81 117.71
  C 319.85 114.41 312.36 110.05 309.04 104.91
  Q 302.72 95.12 307.88 84.03
  C 313.59 71.77 327.18 64.33 340.45 61.80
  C 348.24 60.31 359.72 60.66 364.82 67.50
  C 367.69 71.35 367.05 77.60 363.87 81.35
  C 360.17 85.69 356.59 85.11 350.88 83.52
  C 344.55 81.76 333.41 83.86 331.35 91.20
  Z"
/>
<path fill="#142844" d="
  M 404.13 137.04
  Q 404.08 137.03 403.81 137.29
  Q 396.93 143.72 389.17 147.16
  C 374.49 153.67 360.14 147.26 359.12 130.88
  Q 358.68 123.94 360.21 117.97
  Q 365.21 98.38 377.06 80.08
  Q 380.82 74.27 386.54 73.63
  Q 393.16 72.89 397.59 76.93
  C 402.04 80.99 399.82 87.26 396.97 92.38
  C 391.75 101.76 386.76 110.54 384.61 120.41
  Q 383.65 124.77 386.44 126.59
  A 1.98 1.94 -27.1 0 0 387.43 126.90
  C 395.40 127.13 406.05 113.28 410.40 107.39
  Q 419.39 95.22 427.67 82.19
  C 432.37 74.80 437.61 69.92 446.85 74.69
  C 452.50 77.61 452.85 83.62 450.85 89.09
  Q 439.86 119.16 427.01 147.23
  A 0.88 0.87 12.5 0 0 427.81 148.47
  C 434.68 148.50 454.98 150.85 451.50 162.52
  Q 450.65 165.35 447.76 166.56
  C 445.35 167.57 442.10 165.93 439.02 165.25
  Q 430.36 163.33 421.14 164.41
  C 419.03 164.65 418.13 164.67 417.16 166.88
  Q 412.98 176.42 404.84 190.08
  C 390.11 214.79 366.28 241.20 336.27 245.26
  Q 325.99 246.66 317.09 243.49
  C 300.59 237.62 296.57 221.63 303.30 206.55
  C 310.33 190.84 326.26 178.81 341.38 170.85
  Q 367.24 157.24 396.70 151.80
  A 3.14 3.13 -82.4 0 0 398.95 150.08
  L 404.68 138.16
  A 0.79 0.79 0.0 0 0 404.13 137.04
  Z
  M 325.58 222.59
  C 330.40 228.40 341.25 224.41 346.85 221.05
  C 364.90 210.22 378.18 190.70 387.81 172.14
  Q 388.24 171.30 387.95 170.94
  Q 387.65 170.58 386.74 170.85
  C 366.71 176.85 345.06 186.26 331.05 201.98
  C 326.71 206.85 320.77 216.77 325.58 222.59
  Z"
/>
<path fill="#142844" d="
  M 180.66 141.73
  C 174.52 148.85 164.83 156.13 155.37 157.15
  C 146.69 158.09 138.79 155.62 134.61 147.73
  C 129.94 138.95 130.82 128.38 133.48 118.98
  Q 138.09 102.69 146.67 87.42
  Q 150.34 80.90 152.96 77.95
  C 157.23 73.13 164.34 72.23 169.97 75.26
  C 180.60 80.96 172.48 91.89 168.23 99.47
  Q 161.84 110.85 158.56 121.05
  C 157.31 124.96 155.10 134.88 162.63 133.38
  C 166.72 132.57 171.79 127.01 174.58 123.59
  C 184.94 110.88 194.66 93.04 200.88 83.42
  Q 204.54 77.77 210.43 77.81
  C 217.15 77.86 222.88 82.27 221.68 89.45
  Q 221.38 91.26 218.80 96.32
  Q 213.52 106.67 209.89 117.14
  C 206.96 125.58 205.22 134.54 209.10 142.90
  Q 210.16 145.19 209.42 148.23
  C 207.01 158.19 192.54 159.97 186.24 152.48
  Q 182.66 148.25 182.16 142.21
  A 0.86 0.85 -27.1 0 0 180.66 141.73
  Z"
/>
<path fill="#142844" d="
  M 251.80 135.98
  Q 251.34 136.17 250.76 136.76
  Q 245.69 141.99 238.14 150.61
  Q 234.01 155.32 231.10 156.43
  C 225.98 158.39 219.57 156.90 217.03 151.60
  C 215.03 147.42 216.58 142.45 219.29 139.05
  Q 229.23 126.58 241.28 115.39
  A 1.81 1.80 56.3 0 0 241.69 113.30
  Q 237.35 104.00 233.78 92.49
  Q 232.22 87.48 232.78 84.82
  C 234.73 75.60 248.05 71.50 254.71 78.10
  Q 256.58 79.95 257.68 84.62
  Q 258.21 86.89 260.83 95.76
  A 1.03 1.03 0.0 0 0 262.54 96.21
  Q 270.88 88.14 278.91 80.08
  Q 283.30 75.68 286.13 74.71
  C 290.84 73.11 297.64 74.98 299.57 80.02
  C 301.29 84.51 299.15 88.46 295.92 91.68
  Q 281.97 105.58 270.66 116.73
  A 0.98 0.98 0.0 0 0 270.46 117.85
  Q 275.98 129.27 283.31 137.63
  Q 286.99 141.82 287.28 143.84
  Q 287.87 147.90 285.74 150.93
  C 280.69 158.10 271.33 158.27 264.93 152.52
  Q 257.28 145.67 252.56 136.27
  A 0.61 0.60 65.8 0 0 251.80 135.98
  Z"
/>
</svg>
