<?xml version="1.0" encoding="UTF-8" standalone="no"?>
<!DOCTYPE svg PUBLIC "-//W3C//DTD SVG 1.1//EN" "http://www.w3.org/Graphics/SVG/1.1/DTD/svg11.dtd">
<svg xmlns="http://www.w3.org/2000/svg" version="1.1" viewBox="0.00 0.00 1773.00 1773.00" width="2048.00" height="2048.00">
<path fill="#172946" d="
  M 894.95 973.81
  Q 902.16 953.90 918.36 910.12
  Q 1017.17 642.99 1052.68 546.31
  Q 1058.99 529.14 1062.22 524.43
  Q 1072.92 508.85 1092.19 502.62
  Q 1096.79 501.13 1108.05 499.85
  Q 1124.68 497.95 1142.77 495.48
  Q 1232.15 483.29 1335.22 470.37
  C 1340.75 469.68 1347.23 470.13 1352.06 473.11
  C 1362.93 479.81 1364.40 491.46 1359.87 502.87
  C 1346.37 536.91 1330.67 576.94 1317.20 610.60
  Q 1284.11 693.34 1232.09 822.85
  Q 1202.85 895.63 1174.78 965.66
  Q 1142.59 1045.94 1126.61 1085.97
  Q 1109.58 1128.65 1082.64 1195.63
  Q 1029.54 1327.63 1006.98 1382.73
  C 999.69 1400.55 983.06 1412.71 963.54 1412.97
  Q 934.15 1413.35 828.27 1413.16
  Q 813.71 1413.14 808.49 1411.84
  Q 792.01 1407.73 781.26 1393.63
  Q 777.67 1388.92 771.59 1373.63
  Q 758.30 1340.24 662.23 1102.11
  C 622.60 1003.90 580.03 896.83 541.32 800.70
  Q 486.30 664.01 478.39 644.12
  Q 475.29 636.34 473.05 630.80
  Q 459.48 597.22 422.21 503.06
  Q 420.02 497.53 419.61 494.41
  C 418.47 485.77 421.82 477.64 429.54 473.43
  C 436.22 469.79 442.20 469.88 449.83 470.82
  C 517.15 479.09 582.30 487.84 668.63 499.18
  Q 687.06 501.60 693.71 504.06
  Q 716.29 512.38 725.54 536.97
  Q 733.65 558.53 745.96 590.80
  Q 806.55 749.56 830.40 811.66
  Q 862.19 894.44 894.14 973.83
  A 0.44 0.43 -46.1 0 0 894.95 973.81
  Z"
/>
</svg>
